<svg width="485" height="461" viewBox="0 0 485 461" fill="none" xmlns="http://www.w3.org/2000/svg">
<path d="M20.9067 211.166C23.6143 211.166 25.8092 208.971 25.8092 206.263C25.8092 203.556 23.6143 201.361 20.9067 201.361C18.1991 201.361 16.0042 203.556 16.0042 206.263C16.0042 208.971 18.1991 211.166 20.9067 211.166Z" stroke="#007BFF" stroke-width="2.21515"/>
<path d="M30.5135 206.763C40.402 205.745 55.9181 206.949 57.752 214.598C59.5859 222.247 52.5829 225.044 48.8523 225.487C34.6488 227.744 15.8156 226.682 15.8156 214.598" stroke="#007BFF" stroke-width="2.21515" stroke-linecap="round"/>
<path d="M26.9408 218.331C27.5656 218.331 28.0721 217.824 28.0721 217.199C28.0721 216.575 27.5656 216.068 26.9408 216.068C26.316 216.068 25.8094 216.575 25.8094 217.199C25.8094 217.824 26.316 218.331 26.9408 218.331Z" stroke="#007BFF" stroke-width="2.21515"/>
<path d="M37.8769 217.199C37.8769 217.749 37.3648 218.331 36.557 218.331C35.7491 218.331 35.2371 217.749 35.2371 217.199C35.2371 216.65 35.7491 216.068 36.557 216.068C37.3648 216.068 37.8769 216.65 37.8769 217.199Z" stroke="#007BFF" stroke-width="2.21515"/>
<path d="M46.1738 218.331C46.7987 218.331 47.3052 217.824 47.3052 217.199C47.3052 216.575 46.7987 216.068 46.1738 216.068C45.549 216.068 45.0425 216.575 45.0425 217.199C45.0425 217.824 45.549 218.331 46.1738 218.331Z" stroke="#007BFF" stroke-width="2.21515"/>
<path d="M392.933 73.1404C395.432 73.1404 397.458 71.1143 397.458 68.615C397.458 66.1157 395.432 64.0896 392.933 64.0896C390.433 64.0896 388.407 66.1157 388.407 68.615C388.407 71.1143 390.433 73.1404 392.933 73.1404Z" stroke="#2A2A2A" stroke-width="2.21515"/>
<path d="M401.823 64.655C405.139 64.655 414.615 64.655 419.072 64.655C422.683 64.655 424.421 65.4538 424.421 71.0441C424.421 76.4758 424.376 83.5116 424.421 86.3513C424.452 88.3478 423.458 90.5573 420.142 90.8767C416.826 91.1961 403.517 91.0098 397.277 90.8767C394.959 90.8767 390.858 89.5628 390.858 84.2214V78.2316" stroke="#007BFF" stroke-width="2.21515" stroke-linecap="round"/>
<path d="M399.532 74.0833L407.829 79.74" stroke="#007BFF" stroke-width="2.21515" stroke-linecap="round"/>
<path d="M407.828 79.7407L422.913 65.7874" stroke="#007BFF" stroke-width="2.21515" stroke-linecap="round"/>
<path d="M411.652 76.3469L415.774 80.4952L419.896 84.6435" stroke="#007BFF" stroke-width="2.21515" stroke-linecap="round"/>
<path d="M396.515 84.6435L402.597 76.3469" stroke="#007BFF" stroke-width="2.21515" stroke-linecap="round"/>
<path d="M426.097 355.972C424.844 357.227 423.763 358.309 423.019 359.054C421.078 360.997 419.041 359.863 418.264 359.054L405.885 347.127C404.058 345.427 402.513 343.75 395.605 337.16C394.898 336.452 393.778 334.644 394.952 333.075C396.127 331.507 402.731 323.272 405.885 319.351C406.842 317.965 408.922 316.315 411.574 318.782C413.859 320.906 421.691 328.258 428.381 333.848" stroke="#007BFF" stroke-width="2.21515" stroke-linecap="round"/>
<path d="M405.755 319.774C406.144 326.928 408.769 338.444 422.348 342.778" stroke="#007BFF" stroke-width="2.21515" stroke-linecap="round"/>
<path d="M440.188 343.333C439.566 341.751 434.787 339.909 432.981 343.333C431.12 346.864 432.544 349.839 433.754 350.423C435.3 351.168 437.571 351.557 439.969 347.27" stroke="#007BFF" stroke-width="2.21515" stroke-linecap="round"/>
<path d="M440.584 341.131C440.444 341.957 440.301 342.304 440.188 343.332C440.041 344.671 439.946 346.076 439.969 347.27C440.014 349.365 440.429 350.811 441.606 350.113C443.966 348.713 445.241 347.565 445.58 346.395C446.146 344.426 446.15 340.656 442.967 338.192C439.128 335.216 434.799 335.297 431.393 338.192C428.012 341.065 427.087 345.664 427.273 348.05C427.475 350.66 429.423 356.266 435.779 356.353C442.134 356.441 445.577 353.015 446.105 351.411" stroke="#007BFF" stroke-width="2.21515" stroke-linecap="round"/>
<path d="M105.569 296.231C104.213 290.997 99.7114 281.344 92.5522 284.607C85.3927 287.87 89.5689 293.716 92.5522 296.231C94.5596 297.59 98.8754 299.045 100.078 293.987C101.28 288.93 96.2133 286.85 94.7893 289.094C94.0385 289.977 93.1903 292.193 95.8064 293.987" stroke="#007BFF" stroke-width="2.21515" stroke-linecap="round"/>
<path d="M145.32 42.231C145.968 42.5665 146.739 42.5622 147.382 42.2192L155.997 37.6278L154.401 47.2581C154.282 47.9774 154.525 48.7092 155.05 49.2151L162.078 55.9891L152.427 57.4473C151.706 57.5562 151.085 58.0132 150.766 58.6685L146.496 67.4473L142.126 58.7185C141.8 58.0666 141.173 57.6172 140.451 57.5165L130.783 56.1683L137.733 49.3142C138.252 48.8023 138.486 48.0676 138.359 47.3497L136.654 37.7387L145.32 42.231Z" stroke="#007BFF" stroke-width="2.21515"/>
<path d="M253.965 211.134V243.189" stroke="#2A2A2A" stroke-width="2.21515" stroke-linecap="round"/>
<path d="M278.1 214.905V245.451" stroke="#2A2A2A" stroke-width="2.21515" stroke-linecap="round"/>
<path d="M221.649 353.715C213.679 354.707 195.022 358.367 190.936 365.809C189.709 368.042 188.287 373.475 192.407 377.345C196.526 381.215 204.055 380.198 207.303 379.205L226.247 371.577" stroke="#2A2A2A" stroke-width="2.21515" stroke-linecap="round"/>
<path d="M330.256 297.554C315.385 298.032 249.706 329.829 218.725 345.668C216.087 363.121 227.22 375.653 233.116 379.737C263.997 370.771 327.377 352.602 333.853 351.645C340.329 350.689 346.745 346.067 349.144 343.875C365.933 324.271 353.541 307.615 345.246 301.738C339.341 297.554 334.244 297.425 330.256 297.554Z" fill="#2A2A2A"/>
<path d="M190.961 293.106C201.497 293.808 247.46 311.622 269.238 320.958L219.432 345.846C197.142 352.383 183.449 350.229 179.268 348.82C155.13 337.191 164.587 308.501 174.177 297.873C180.359 292.612 187.186 292.854 190.961 293.106Z" fill="#2A2A2A"/>
<path d="M308.227 357.11C314.812 360.274 318.373 364.42 320.178 367.82C324.047 376.675 317.1 381.997 309.169 379.495C304.786 378.112 303.753 377.185 301.431 375.26C300.253 374.283 294.752 369.171 288.471 363.133" stroke="#2A2A2A" stroke-width="2.21515" stroke-linecap="round"/>
<path d="M182.193 213.61L186.451 290.985C186.774 296.857 191.629 301.452 197.51 301.452H324.346C330.463 301.452 335.422 296.494 335.422 290.377V211.234C335.422 205.059 330.372 200.076 324.197 200.159L193.103 201.927C186.806 202.011 181.847 207.322 182.193 213.61Z" fill="#2A2A2A"/>
<rect x="186.084" y="302.773" width="149.338" height="7.16522" rx="3.58261" fill="#2A2A2A"/>
<path d="M278.478 160.223C291.614 160.035 320.526 170.028 332.028 201.517" stroke="#2A2A2A" stroke-width="2.21515" stroke-linecap="round"/>
<path d="M249.628 160.034C219.647 165.879 205.317 178.701 194.003 203.402" stroke="#2A2A2A" stroke-width="2.21515" stroke-linecap="round"/>
<path d="M349.941 189.858L357.295 177.601" stroke="#2A2A2A" stroke-width="2.21515" stroke-linecap="round"/>
<path d="M357.295 193.253L367.288 184.956" stroke="#2A2A2A" stroke-width="2.21515" stroke-linecap="round"/>
<path d="M358.803 198.908C360.752 199.662 365.177 200.379 367.288 197.211" stroke="#2A2A2A" stroke-width="2.21515" stroke-linecap="round"/>
<path d="M165.908 187.563L154.595 175.873" stroke="#2A2A2A" stroke-width="2.21515" stroke-linecap="round"/>
<path d="M177.41 185.678L170.622 168.142" stroke="#2A2A2A" stroke-width="2.21515" stroke-linecap="round"/>
<path d="M163.08 194.163L154.595 190.958" stroke="#2A2A2A" stroke-width="2.21515" stroke-linecap="round"/>
<path d="M306.573 154.52C327.314 109.831 360.877 17.2114 329.2 4.23861C289.602 -11.9774 238.314 34.7851 196.454 146.412" stroke="#2A2A2A" stroke-width="2.21515" stroke-linecap="round"/>
<path d="M339.57 222.667C346.547 233.603 354.467 246.614 339.57 271.094" stroke="#2A2A2A" stroke-width="2.21515" stroke-linecap="round"/>
<path d="M278.666 161.165C280.363 156.263 278.817 152.964 277.308 152.335C268.258 160.632 254.53 157.552 249.439 152.524C247.629 154.183 248.685 159.091 249.439 160.6C259.244 171.461 273.198 165.376 278.666 161.165Z" fill="#2A2A2A"/>
<path d="M238.503 191.334L239.263 190.167C243.533 183.614 251.841 180.998 259.095 183.923C265.607 186.549 273.069 184.727 277.639 179.396L283.569 172.478" stroke="#2A2A2A" stroke-width="2.21515" stroke-linecap="round"/>
<path d="M179.484 229.613C176.656 236.275 173.3 252.428 182.501 263.742" stroke="#2A2A2A" stroke-width="2.21515" stroke-linecap="round"/>
<path d="M304.666 84.085C300.518 98.9811 298.443 100.301 292.41 106.901C292.41 100.378 291.289 89.4308 291.289 84.8723C271.532 84.8723 254.859 76.8071 248.991 72.7746C249.201 86.4502 236.381 95.392 236.381 95.392C236.381 95.392 238.22 100.915 239.271 113.276C240.111 123.164 237.694 121.253 236.381 119.061C232.598 106.858 226.397 110.12 223.77 113.276C191.531 60.8923 241.109 50.7708 250.567 51.7351C257.713 45.6336 267.679 40.8522 274.685 40.1509C299.952 37.6216 311.392 59.9315 304.666 84.085Z" fill="#2A2A2A"/>
<path d="M236.822 128.384C240.216 149.105 262.997 164.004 279.436 147.219C295.876 130.434 292.586 99.7092 290.83 85.3718" stroke="#2A2A2A" stroke-width="2.21515" stroke-linecap="round"/>
<path d="M223.397 111.992C221.323 117.083 223.269 128.364 236.822 128.364" stroke="#2A2A2A" stroke-width="2.21515" stroke-linecap="round"/>
<path d="M229.375 114.789C229.075 115.878 229.315 118.459 232.674 120.068" stroke="#2A2A2A" stroke-width="2.21515" stroke-linecap="round"/>
<path d="M290.373 125.724C294.797 123.88 297.915 117.05 296.715 106.114" stroke="#2A2A2A" stroke-width="2.21515" stroke-linecap="round"/>
<path d="M265.483 138.169C269.82 139.301 269.546 136.187 272.837 133.455" stroke="#2A2A2A" stroke-width="2.21515" stroke-linecap="round"/>
<ellipse cx="278.43" cy="111.828" rx="2.82838" ry="2.82838" fill="#2A2A2A"/>
<ellipse cx="253.54" cy="112.204" rx="2.82838" ry="2.82838" fill="#2A2A2A"/>
<path d="M247.381 105.738C247.977 103.985 250.545 100.743 256.055 101.795" stroke="#2A2A2A" stroke-width="2.21515" stroke-linecap="round"/>
<path d="M273.78 102.343C275.094 101.205 278.668 99.6112 282.453 102.343" stroke="#2A2A2A" stroke-width="2.21515" stroke-linecap="round"/>
<path d="M264.656 110.261C264.217 113.985 263.918 121.536 266.237 121.952" stroke="#2A2A2A" stroke-width="2.21515" stroke-linecap="round"/>
<path d="M373.322 281.309C423.667 295.262 514.1 311.289 473.07 263.773C460.122 251.014 441.015 236.055 410.28 222.856" stroke="#2A2A2A" stroke-width="2.21515" stroke-linecap="round"/>
<path d="M427.816 183.819C459.116 163.769 509.537 122.349 460.813 117.07C412.09 111.79 367.603 130.08 351.45 139.885" stroke="#2A2A2A" stroke-width="2.21515" stroke-linecap="round"/>
<path d="M150.326 116.025C103.94 90.632 9.2461 51.5753 1.55292 98.4886C-6.14027 145.402 87.8498 184.534 135.807 198.236" stroke="#2A2A2A" stroke-width="2.21515" stroke-linecap="round"/>
<path d="M148.12 222.856C80.4273 257.362 -4.39023 305.084 42.591 329.957C61.8237 340.139 111.038 333.917 133.665 324.677" stroke="#2A2A2A" stroke-width="2.21515" stroke-linecap="round"/>
<ellipse cx="258.867" cy="448.749" rx="93.3364" ry="11.3135" fill="#B3C0DD"/>
</svg>
